<svg width="21" height="20" viewBox="0 0 21 20" fill="none" xmlns="http://www.w3.org/2000/svg">
<path d="M13.75 16.75C13.75 17.8546 14.6454 18.75 15.75 18.75C16.8546 18.75 17.75 17.8546 17.75 16.75C17.75 15.6454 16.8546 14.75 15.75 14.75H6.11729C5.61964 14.75 5.19772 14.3841 5.12735 13.8914M16.75 11.75H4.82143L3.25 0.75H0.75M7.75 2.75H19.75L17.75 8.75M9.75 16.75C9.75 17.8546 8.85457 18.75 7.75 18.75C6.64543 18.75 5.75 17.8546 5.75 16.75C5.75 15.6454 6.64543 14.75 7.75 14.75C8.85457 14.75 9.75 15.6454 9.75 16.75Z" stroke="white" stroke-width="1.5" stroke-linecap="round" stroke-linejoin="round"/>
</svg>
