<svg width="36" height="22" viewBox="0 0 36 22" fill="none" xmlns="http://www.w3.org/2000/svg">
<path d="M12.5586 20.75C13.3542 20.75 14.1173 20.4339 14.6799 19.8713C15.2425 19.3087 15.5586 18.5456 15.5586 17.75C15.5586 16.9544 15.2425 16.1913 14.6799 15.6287C14.1173 15.0661 13.3542 14.75 12.5586 14.75C11.7629 14.75 10.9999 15.0661 10.4373 15.6287C9.87466 16.1913 9.55859 16.9544 9.55859 17.75C9.55859 18.5456 9.87466 19.3087 10.4373 19.8713C10.9999 20.4339 11.7629 20.75 12.5586 20.75V20.75ZM27.5586 20.75C28.3542 20.75 29.1173 20.4339 29.6799 19.8713C30.2425 19.3087 30.5586 18.5456 30.5586 17.75C30.5586 16.9544 30.2425 16.1913 29.6799 15.6287C29.1173 15.0661 28.3542 14.75 27.5586 14.75C26.7629 14.75 25.9999 15.0661 25.4373 15.6287C24.8747 16.1913 24.5586 16.9544 24.5586 17.75C24.5586 18.5456 24.8747 19.3087 25.4373 19.8713C25.9999 20.4339 26.7629 20.75 27.5586 20.75V20.75Z" stroke="#212429" stroke-width="1.5" stroke-miterlimit="1.5" stroke-linecap="round" stroke-linejoin="round"/>
<path d="M8.53359 17.75H5.45859C5.3404 17.75 5.22337 17.726 5.11418 17.6794C5.00499 17.6328 4.90577 17.5645 4.8222 17.4784C4.73862 17.3923 4.67233 17.2901 4.6271 17.1776C4.58187 17.0651 4.55859 16.9445 4.55859 16.8227V9.25M15.1336 17.75H22.5586V1.67727C22.5586 1.43134 22.4638 1.19549 22.295 1.02159C22.1262 0.847695 21.8973 0.75 21.6586 0.75H1.55859L15.1336 17.75Z" stroke="#212429" stroke-width="1.5" stroke-linecap="round"/>
<path d="M3.55859 5.75H9.55859" stroke="#212429" stroke-width="1.5" stroke-linecap="round" stroke-linejoin="round"/>
<path d="M22.5586 17.75H24.0586M22.5586 5.75H30.9736C31.1476 5.75004 31.3178 5.8005 31.4637 5.89528C31.6096 5.99005 31.7248 6.12507 31.7956 6.284L34.4806 12.326C34.5317 12.4407 34.5583 12.5649 34.5586 12.6905V16.85C34.5586 16.9682 34.5353 17.0852 34.4901 17.1944C34.4449 17.3036 34.3786 17.4028 34.295 17.4864C34.2114 17.57 34.1122 17.6363 34.003 17.6815C33.8938 17.7267 33.7768 17.75 33.6586 17.75H30.8086L22.5586 5.75Z" stroke="#212429" stroke-width="1.5" stroke-linecap="round"/>
</svg>
