<svg width="24" height="24" viewBox="0 0 24 24" fill="none" xmlns="http://www.w3.org/2000/svg">
<path d="M18.8824 11H5.11765C4.01308 11 3 11.8954 3 13V20C3 21.1046 4.01308 22 5.11765 22H18.8824C19.9869 22 21 21.1046 21 20V13C21 11.8954 19.9869 11 18.8824 11Z" fill="#CCCCCC" stroke="#CCCCCC" stroke-width="2" stroke-linecap="round" stroke-linejoin="round"/>
<path d="M7 11V7C7 5.67392 7.17343 3.93768 8.11111 3C9.04879 2.06232 11.2295 2 12.5556 2C13.8816 2 14.9512 2.06232 15.8889 3C16.8266 3.93768 17 5.67392 17 7V11" stroke="#CCCCCC" stroke-width="2" stroke-linecap="round" stroke-linejoin="round"/>
</svg>
